<?xml version="1.0" encoding="UTF-8" standalone="no"?>
<!-- Created with Inkscape (http://www.inkscape.org/) -->

<svg
   width="131.08031mm"
   height="32.536362mm"
   viewBox="0 0 131.08031 32.536362"
   version="1.1"
   id="svg1"
   xml:space="preserve"
   inkscape:version="1.4 (e7c3feb100, 2024-10-09)"
   sodipodi:docname="inav_logo.svg"
   xmlns:inkscape="http://www.inkscape.org/namespaces/inkscape"
   xmlns:sodipodi="http://sodipodi.sourceforge.net/DTD/sodipodi-0.dtd"
   xmlns="http://www.w3.org/2000/svg"
   xmlns:svg="http://www.w3.org/2000/svg"><sodipodi:namedview
     id="namedview1"
     pagecolor="#ffffff"
     bordercolor="#000000"
     borderopacity="0.25"
     inkscape:showpageshadow="2"
     inkscape:pageopacity="0.0"
     inkscape:pagecheckerboard="0"
     inkscape:deskcolor="#d1d1d1"
     inkscape:document-units="mm"
     inkscape:zoom="1.0387346"
     inkscape:cx="385.08394"
     inkscape:cy="552.59545"
     inkscape:window-width="1521"
     inkscape:window-height="1210"
     inkscape:window-x="980"
     inkscape:window-y="129"
     inkscape:window-maximized="0"
     inkscape:current-layer="layer1"><inkscape:page
       x="0"
       y="0"
       width="131.08031"
       height="32.536362"
       id="page2"
       margin="0"
       bleed="0" /></sodipodi:namedview><defs
     id="defs1"><rect
       x="118.41331"
       y="503.49725"
       width="403.37543"
       height="258.96896"
       id="rect1" /></defs><g
     inkscape:label="Layer 1"
     inkscape:groupmode="layer"
     id="layer1"
     transform="translate(-12.487362,-96.267913)"><text
       xml:space="preserve"
       transform="matrix(0.26458333,0,0,0.26458333,36.679245,-31.850329)"
       id="text1"
       style="font-style:italic;font-size:106.667px;line-height:1;font-family:Monospace;-inkscape-font-specification:'Monospace Italic';text-align:start;letter-spacing:10px;writing-mode:lr-tb;direction:ltr;white-space:pre;shape-inside:url(#rect1);display:inline;fill:#03364a;fill-opacity:1"
       inkscape:export-filename="text1.svg"
       inkscape:export-xdpi="96"
       inkscape:export-ydpi="96"><tspan
         x="118.41406"
         y="584.53997"
         id="tspan3"><tspan
           style="font-style:oblique;font-weight:bold;font-family:Sawasdee;-inkscape-font-specification:'Sawasdee Bold Oblique'"
           id="tspan2">INAV</tspan></tspan></text><path
       d="m 59.690314,128.27209 c -0.09358,-0.15144 -0.403992,-0.20114 -0.689768,-0.11044 -0.285777,0.0907 -0.701543,0.0139 -0.923952,-0.17066 -0.326972,-0.27135 -0.444659,-0.27032 -0.615103,0.005 -0.16264,0.26315 -0.339302,0.27223 -0.773589,0.0398 -0.309536,-0.16565 -0.562822,-0.42354 -0.562822,-0.57311 0,-0.14957 -0.208359,-0.24612 -0.46302,-0.21461 -0.254662,0.0315 -0.641615,-0.009 -0.859896,-0.0903 -0.218282,-0.0812 -0.616532,-0.21913 -0.885005,-0.30657 -0.268473,-0.0874 -0.549963,-0.3954 -0.625502,-0.68432 -0.103425,-0.3955 -0.287178,-0.48768 -0.74369,-0.37312 -0.461989,0.11595 -0.64905,0.0176 -0.785813,-0.41333 -0.140838,-0.44376 -0.257625,-0.50065 -0.542502,-0.26423 -0.414946,0.34436 -0.915405,0.12948 -0.915405,-0.39304 0,-0.47855 -0.783008,-0.74784 -1.190678,-0.40949 -0.241591,0.20049 -0.498184,0.0614 -0.958665,-0.51983 -0.418729,-0.52848 -0.783881,-0.74491 -1.093099,-0.64783 -0.280432,0.088 -0.527394,-0.0187 -0.623623,-0.26937 -0.0876,-0.22832 -0.388409,-0.41513 -0.668444,-0.41513 -0.280035,0 -0.574807,-0.17108 -0.655055,-0.38018 -0.08025,-0.20911 -0.292417,-0.32393 -0.471514,-0.25521 -0.179096,0.0687 -0.971338,-0.48443 -1.760537,-1.22925 -0.7892,-0.74483 -1.955218,-1.59126 -2.591197,-1.88098 l -1.156309,-0.52681 -0.633148,0.59481 c -0.456565,0.42892 -0.633148,0.88078 -0.633148,1.62015 0,2.10873 -0.675322,2.72918 -4.284133,3.93648 -2.420567,0.80967 -2.594769,0.6283 -2.994025,-3.11759 -0.06488,-0.60852 -0.150416,-1.25095 -0.19013,-1.42764 -0.03971,-0.17669 0.523135,-0.77803 1.250739,-1.33628 1.455922,-1.11707 2.777596,-3.40571 1.966727,-3.40571 -0.234394,0 -1.901507,-1.11866 -2.363602,-1.586 -0.352372,-0.35639 -1.372473,-0.79525 -1.848485,-0.79525 -0.293,0 -0.532765,-0.11907 -0.532765,-0.26459 0,-0.14552 -0.344435,-0.26458 -0.76544,-0.26458 -0.450109,0 -0.830818,-0.17041 -0.924163,-0.41365 -0.0873,-0.2275 -0.269028,-0.34547 -0.40386,-0.26215 -0.134832,0.0833 -0.417724,-0.0211 -0.628703,-0.2321 -0.210979,-0.21098 -0.628253,-0.31961 -0.928873,-0.24099 -0.37076,0.097 -0.656272,-0.0351 -0.892016,-0.41259 -0.190696,-0.30535 -0.54819,-0.5552 -0.794411,-0.5552 -0.246221,0 -0.523267,-0.23813 -0.615633,-0.52917 -0.09237,-0.29104 -0.354647,-0.52916 -0.582797,-0.52916 -0.228151,0 -0.690722,-0.29766 -1.02788,-0.66146 -0.337159,-0.3638 -0.685377,-0.66146 -0.773827,-0.66146 -0.275458,0 -2.631227,-1.87336 -2.85406,-2.26968 -0.116371,-0.20688 -0.384254,-0.37615 -0.595312,-0.37615 -0.211058,0 -0.383726,-0.18154 -0.383726,-0.40344 0,-0.2219 -0.30308,-0.51866 -0.673496,-0.6595 -0.417883,-0.15888 -0.643838,-0.42587 -0.595313,-0.70347 0.05074,-0.29033 -0.15404,-0.50671 -0.583274,-0.6163 -0.481859,-0.12304 -0.64434,-0.32536 -0.598435,-0.74517 0.03734,-0.34147 -0.08422,-0.57629 -0.298344,-0.57629 -0.198747,0 -0.519139,-0.19012 -0.711993,-0.42249 -0.296281,-0.357 -0.277945,-0.46315 0.118356,-0.68492 0.44741,-0.250376 0.446828,-0.279396 -0.01249,-0.630816 -0.377667,-0.28893 -0.407459,-0.41728 -0.138229,-0.59518 0.274796,-0.18159 0.261607,-0.29459 -0.06615,-0.56658 -0.563034,-0.46726 -0.512842,-0.80415 0.119758,-0.80415 0.293979,0 0.529167,-0.17639 0.529167,-0.39688 0,-0.45905 0.475112,-0.50493 1.437984,-0.13884 0.538427,0.20472 0.678682,0.17738 0.678682,-0.13229 0,-0.21468 0.04194,-0.39031 0.09321,-0.39031 0.05126,0 1.331199,0.51684 2.844272,1.14853 1.513073,0.63169 3.642519,1.41764 4.732337,1.74651 2.786857,0.841166 3.348038,1.172396 7.788804,4.596076 4.3942,3.38799 5.706005,4.15052 7.139782,4.15052 0.771392,0 1.154588,-0.19069 1.823085,-0.9072 0.689425,-0.73893 1.042723,-0.90784 1.904735,-0.91067 1.480661,-0.005 1.984375,0.18795 1.984375,0.75954 0,0.27143 -0.208359,0.56089 -0.463021,0.64322 -0.504322,0.16309 -1.124479,1.2962 -1.124479,2.0546 0,0.58708 1.60573,2.39842 2.756694,3.10991 0.469477,0.29014 2.088806,0.95748 3.598598,1.48299 4.1275,1.43669 5.137679,2.05198 8.183298,4.98502 1.535456,1.47865 3.621616,3.27977 4.636029,4.00261 1.78689,1.27315 1.820995,1.31824 1.095296,1.44762 l -0.749062,0.13354 0.558376,0.50404 c 0.770864,0.69585 0.702548,1.04473 -0.162057,0.82772 -0.707522,-0.17758 -0.711809,-0.17129 -0.238654,0.35152 0.590814,0.65286 0.353139,1.21399 -0.353933,0.83556 -0.409522,-0.21918 -0.46527,-0.17714 -0.349965,0.26387 0.154967,0.59258 0,0.645 -0.735674,0.25068 -0.402669,-0.2155 -0.511783,-0.1873 -0.511783,0.13229 0,0.46244 -0.413147,0.54335 -0.6681,0.13084 z"
       id="path1"
       style="fill:#ffffff;stroke:#000000;stroke-width:0.529167;stroke-dasharray:none;stroke-opacity:1" /></g></svg>
