<?xml version="1.0" encoding="UTF-8" standalone="no"?>
<!-- Created with Inkscape (http://www.inkscape.org/) -->

<svg
   width="44.830193mm"
   height="44.830185mm"
   viewBox="0 0 44.830193 44.830185"
   version="1.1"
   id="svg1"
   xml:space="preserve"
   xmlns="http://www.w3.org/2000/svg"
   xmlns:svg="http://www.w3.org/2000/svg"><defs
     id="defs1" /><g
     id="layer1"
     transform="translate(-87.113207,-115.64151)"><rect
       style="fill:#37a8db;fill-opacity:1;stroke-width:0.264583"
       id="rect2"
       width="44.830189"
       height="44.830189"
       x="87.113213"
       y="115.64151"
       ry="5.6037736" /><g
       id="g11"
       transform="matrix(0.26458333,0,0,0.26458333,402.34269,111.33369)"
       style="fill:#ffffff">
	<path
   class="st0"
   d="m -1107.5,129.2 c 0.2,0.2 0.5,0.3 0.8,0.3 0.3,0 0.6,-0.1 0.8,-0.3 1.7,-1.9 5.2,-5.7 8.6,-10.6 4.3,-6.1 9.5,-15.1 9.5,-23.1 0,-10.5 -8.5,-19 -19,-19 -10.5,0 -19,8.5 -19,19 0,8 5.2,17 9.5,23.1 3.6,4.9 7,8.7 8.8,10.6 z m 0.8,-45.5 c 6.4,0 11.6,5.2 11.6,11.6 0,6.4 -5.2,11.6 -11.6,11.6 -6.4,0 -11.6,-5.2 -11.6,-11.6 0,-6.4 5.2,-11.6 11.6,-11.6 z m 0,0"
   id="path1"
   style="fill:#ffffff" />
	<g
   id="g10"
   style="fill:#ffffff">
		<g
   id="g6"
   style="fill:#ffffff">
			<g
   id="g3"
   style="fill:#ffffff">
				<path
   class="st0"
   d="m -1135.3,64.8 c 0,-3.7 -3,-6.6 -6.6,-6.6 -3.6,0 -6.6,3 -6.6,6.6 0,3.7 3,6.6 6.6,6.6 0.9,0 1.7,-0.2 2.5,-0.5 l 13.7,13.7 3.7,-3.7 -13.7,-13.7 c 0.2,-0.7 0.4,-1.5 0.4,-2.4 z"
   id="path2"
   style="fill:#ffffff" />
				<path
   class="st0"
   d="m -1141.9,39 c -14.2,0 -25.7,11.5 -25.7,25.7 0,14.2 11.5,25.7 25.7,25.7 3.7,0 7.1,-0.8 10.3,-2.2 l -4.1,-4.1 c -2,0.6 -4.1,1 -6.2,1 -11.3,0 -20.5,-9.2 -20.5,-20.5 0,-11.3 9.2,-20.5 20.5,-20.5 11.3,0 20.5,9.2 20.5,20.5 0,2.8 -0.6,5.4 -1.6,7.9 l 3.9,3.9 c 1.8,-3.5 2.9,-7.6 2.9,-11.8 0,-14 -11.5,-25.6 -25.7,-25.6 z"
   id="path3"
   style="fill:#ffffff" />
			</g>
			<g
   id="g5"
   style="fill:#ffffff">
				<path
   class="st0"
   d="m -1078.2,64.8 c 0,-3.7 3,-6.6 6.6,-6.6 3.6,0 6.6,3 6.6,6.6 0,3.7 -3,6.6 -6.6,6.6 -0.9,0 -1.7,-0.2 -2.5,-0.5 l -13.7,13.7 -3.7,-3.7 13.7,-13.7 c -0.2,-0.7 -0.4,-1.5 -0.4,-2.4 z"
   id="path4"
   style="fill:#ffffff" />
				<path
   class="st0"
   d="m -1071.5,39 c 14.2,0 25.7,11.5 25.7,25.7 0,14.2 -11.5,25.7 -25.7,25.7 -3.7,0 -7.1,-0.8 -10.3,-2.2 l 4.1,-4.1 c 2,0.6 4.1,1 6.2,1 11.3,0 20.5,-9.2 20.5,-20.5 0,-11.3 -9.2,-20.5 -20.5,-20.5 -11.3,0 -20.5,9.2 -20.5,20.5 0,2.8 0.6,5.4 1.6,7.9 l -3.9,3.9 c -1.8,-3.5 -2.9,-7.6 -2.9,-11.8 -0.1,-14 11.5,-25.6 25.7,-25.6 z"
   id="path5"
   style="fill:#ffffff" />
			</g>
		</g>
		<g
   id="g7"
   style="fill:#ffffff">
			<path
   class="st0"
   d="m -1135.3,137.2 c 0,3.7 -3,6.6 -6.6,6.6 -3.6,0 -6.6,-3 -6.6,-6.6 0,-3.7 3,-6.6 6.6,-6.6 0.9,0 1.7,0.2 2.5,0.5 l 13.7,-13.7 3.7,3.7 -13.7,13.7 c 0.2,0.7 0.4,1.6 0.4,2.4 z"
   id="path6"
   style="fill:#ffffff" />
			<path
   class="st0"
   d="m -1141.9,163 c -14.2,0 -25.7,-11.5 -25.7,-25.7 0,-14.2 11.5,-25.7 25.7,-25.7 3.7,0 7.1,0.8 10.3,2.2 l -4.1,4.1 c -2,-0.6 -4.1,-1 -6.2,-1 -11.3,0 -20.5,9.2 -20.5,20.5 0,11.3 9.2,20.5 20.5,20.5 11.3,0 20.5,-9.2 20.5,-20.5 0,-2.8 -0.6,-5.4 -1.6,-7.9 l 3.9,-3.9 c 1.8,3.5 2.9,7.6 2.9,11.8 0,14 -11.5,25.6 -25.7,25.6 z"
   id="path7"
   style="fill:#ffffff" />
		</g>
		<g
   id="g9"
   style="fill:#ffffff">
			<path
   class="st0"
   d="m -1078.2,137.2 c 0,3.7 3,6.6 6.6,6.6 3.6,0 6.6,-3 6.6,-6.6 0,-3.7 -3,-6.6 -6.6,-6.6 -0.9,0 -1.7,0.2 -2.5,0.5 l -13.7,-13.7 -3.7,3.7 13.7,13.7 c -0.2,0.7 -0.4,1.6 -0.4,2.4 z"
   id="path8"
   style="fill:#ffffff" />
			<path
   class="st0"
   d="m -1071.5,163 c 14.2,0 25.7,-11.5 25.7,-25.7 0,-14.2 -11.5,-25.7 -25.7,-25.7 -3.7,0 -7.1,0.8 -10.3,2.2 l 4.1,4.1 c 2,-0.6 4.1,-1 6.2,-1 11.3,0 20.5,9.2 20.5,20.5 0,11.3 -9.2,20.5 -20.5,20.5 -11.3,0 -20.5,-9.2 -20.5,-20.5 0,-2.8 0.6,-5.4 1.6,-7.9 l -3.9,-3.9 c -1.8,3.5 -2.9,7.6 -2.9,11.8 -0.1,14 11.5,25.6 25.7,25.6 z"
   id="path9"
   style="fill:#ffffff" />
		</g>
	</g>
</g></g><style
     type="text/css"
     id="style1">
	.st0{fill:#FFFFFF;}
</style><style
     type="text/css"
     id="style1-6">
	.st0{fill:#37A8DB;}
</style></svg>
