<?xml version="1.0" encoding="UTF-8"?>
<svg viewBox="0 0 74.9 74.9" xmlns="http://www.w3.org/2000/svg">
 <path d="m65.535 37.45a28.563 28.563 0 1 0 -57.126 0 28.563 28.563 0 1 0 57.126 0" fill="#00abc9"/>
 <g transform="matrix(1.2723 0 0 1.2723 -9.9636 -10.188)">
  <path d="m35.167,23.996 .004-.104 .007-.1 .014-.098 .018-.094 .021-.09 .027-.087 .03-.084 .033-.08 .037-.08 .043-.072 .043-.073 .047-.066 .052-.064 .052-.06 .058-.058 .058-.055 .061-.052 .065-.046 .064-.044 .069-.04 .069-.039 .071-.034 .074-.031 .073-.028 .076-.023 .076-.022 .076-.018 .078-.013 .08-.013 .079-.007 .08-.004 .078-.001 .08.002 .08.006 .078.009 .078.013 .078.017 .076.018 .077.023 .076.026 .074.029 .072.033 .07.036 .071.039 .068.042 .063.047 .064.049 .064.053 .058.056 .055.061 .055.06 .046.068 .049.07 .042.072 .043.077 .036.08 .035.083 .027.086 .025.091 .022.093 .017.096 .014.101 .008.103 .004.106v9.333l13.075,7.885v3.486l-13.011-4.272v6.965l3.023,2.366v2.76l-4.667-1.444-4.666,1.444v-2.76l2.959-2.366v-6.965l-13.014,4.272v-3.486l12.883-7.885v-9.398z" fill="#fff"/>
 </g>
</svg>
