<?xml version="1.0" encoding="UTF-8"?>
<svg viewBox="0 0 637.46729 636.34015" xmlns="http://www.w3.org/2000/svg" xmlns:xlink="http://www.w3.org/1999/xlink">
 <defs>
  <pattern id="b" width="2" height="1" patternTransform="scale(10)" patternUnits="userSpaceOnUse">
   <path d="m0-.5h1v2h-1z" fill="#fff"/>
  </pattern>
  <pattern id="a" xlink:href="#b" patternTransform="matrix(2.9026 0 0 2.9026 461.05 504.85)"/>
 </defs>
 <g transform="translate(-47.223 -281.91)">
  <g transform="matrix(.29026 0 0 .30002 464.02 491.3)" fill="#0819fe" stroke="#a0ffff" stroke-width="3.395">
   <path d="m-312.69-525.25c-265.41-0.29873-529.9 111.33-711.43 305.29-147.36 155.44-240.07 363.14-251.15 577.67-11.925 204.85 47.534 413.18 167.34 579.79 128.25 181.43 321.56 314.95 536.17 372.56 215.45 58.876 450.82 43.447 656.02-44.972 169.89-72.496 318.75-194.32 421.24-348.16 85.797-127.82 139.26-277.49 151.49-431.15 15.697-186.75-27.536-378.23-123.75-539.01-107.79-182.56-278.64-326.1-475.99-403.1-117.41-46.203-243.67-69.851-369.92-68.922z"/>
   <path d="m-316.41-485.22c-231.45 0.94858-462 89.484-632.11 246.36-145 132.62-246.77 313.89-277.56 508.91-29.516 180.68-0.7454 370.86 83.148 533.51 84.106 165.07 219.86 301.84 383.19 388.86 150.4 80.846 323.17 119.79 494.02 111.73 188.03-8.1734 373.66-72.097 524.32-185 134.62-100.1 242.17-237.31 303.05-394.28 70.061-178.97 78.423-382.13 22.041-566.12-48.324-160.06-143.92-304.91-270.13-413.92-130.11-113.03-292.22-189.17-462.62-216.95-55.226-9.2406-111.3-13.571-167.34-13.11z"/>
  </g>
  <path d="m362.53 553.46c0 31.091-26.255 56.295-58.641 56.295s-58.641-25.204-58.641-56.295 26.255-56.295 58.641-56.295 58.641 25.204 58.641 56.295z" fill="#ffff03"/>
  <path d="m379.78 482.73 0.82931 234.69 111.13 1.6586c-22.532-78.784-52.232-157.57-111.96-236.35z" fill="#f1fffc" stroke="#2c7a7a" stroke-width=".29026"/>
  <path d="m227.33 725.78c99.905 15.541 197.62 13.528 294.41 4.1466-10.06 19.639-14.811 34.835-45.612 63.028-76.02-15.277-152.04-1.1888-228.06-1.6586 2.2829-24.137-11.351-44.295-20.733-65.516z" fill="#fa1600" stroke="#a0ffff" stroke-width=".29026"/>
  <path d="m375.43 436.18c-1.716 11.337-1.5533 22.675 0 34.012l-46.913-2.3456c18.971-6.1109 37.169-13.253 46.913-31.666z" fill="url(#a)" stroke="#fbfbfb" stroke-width="1.3932"/>
  <path d="m367.57 513.08-0.82931 202.23-111.13 1.4292c60.496-65.78 84.72-134.86 111.96-203.66z" fill="#f1fffc" stroke="#2c7a7a" stroke-width=".26944"/>
  <path transform="matrix(.29026 0 0 .39669 456.36 474.68)" d="m-40.406 454.35c0 33.474-35.276 60.609-78.792 60.609s-78.792-27.136-78.792-60.609 35.276-60.609 78.792-60.609 78.792 27.136 78.792 60.609z" fill="#fa1600"/>
 </g>
</svg>
